<?xml version="1.0" standalone="no"?>
<!DOCTYPE svg PUBLIC "-//W3C//DTD SVG 20010904//EN"
 "http://www.w3.org/TR/2001/REC-SVG-20010904/DTD/svg10.dtd">
<svg version="1.0" xmlns="http://www.w3.org/2000/svg"
 width="512.000000pt" height="512.000000pt" viewBox="0 0 512.000000 512.000000"
 preserveAspectRatio="xMidYMid meet">
<metadata>
Created by potrace 1.11, written by Peter Selinger 2001-2013
</metadata>
<g transform="translate(0.000000,512.000000) scale(0.100000,-0.100000)"
fill="#000000" stroke="none">
<path d="M2502 4733 c-349 -310 -678 -722 -939 -1177 -69 -119 -223 -417 -223
-430 0 -3 -15 -39 -33 -78 -104 -224 -237 -642 -273 -858 -15 -89 1 -162 42
-201 26 -24 27 -24 256 -24 223 0 231 -1 234 -20 1 -11 5 -41 9 -67 3 -26 7
-51 7 -55 1 -5 14 -56 29 -115 93 -355 286 -624 539 -752 75 -38 179 -76 207
-76 4 0 7 28 6 62 -1 35 -2 79 -2 100 -1 35 -4 37 -66 66 -164 77 -296 214
-393 407 -29 59 -86 217 -96 265 -3 14 -10 52 -16 85 -6 33 -13 70 -15 83 -5
22 -5 22 129 22 l135 0 6 -38 c26 -157 117 -298 254 -394 48 -34 61 -28 61 25
0 15 1 28 1 30 1 1 5 27 9 57 7 53 6 57 -26 92 -38 42 -68 99 -95 175 l-18 53
87 0 c83 -1 88 -2 116 -30 16 -17 35 -30 42 -30 7 0 16 -5 20 -11 4 -7 7 -239
7 -516 0 -501 0 -504 21 -515 24 -13 90 -12 114 1 16 9 17 54 18 515 l0 506
32 31 c18 17 32 35 32 40 0 5 36 9 80 9 64 0 80 -3 80 -15 0 -28 -42 -121 -80
-176 -21 -32 -37 -59 -36 -60 2 -2 6 -46 10 -98 3 -52 8 -96 10 -98 17 -17
124 81 184 167 37 52 80 154 97 225 l11 50 132 3 c73 1 132 -1 132 -6 0 -5 -4
-33 -10 -63 -5 -30 -12 -70 -15 -89 -10 -59 -72 -234 -108 -307 -93 -183 -233
-329 -379 -396 l-38 -17 0 -104 0 -105 68 23 c140 48 243 114 350 225 149 155
263 395 321 676 11 55 22 114 24 130 l4 30 143 3 c79 1 149 1 156 -2 8 -3 9
-19 4 -53 -4 -26 -11 -70 -14 -98 -10 -77 -60 -261 -101 -371 -91 -244 -218
-450 -385 -626 -294 -311 -650 -422 -1060 -333 -312 68 -617 335 -805 704 -85
166 -171 390 -191 498 -10 51 -72 113 -114 113 -49 0 -95 -33 -114 -83 -15
-41 -15 -47 5 -122 47 -183 124 -383 213 -550 249 -469 595 -745 1030 -821
143 -26 338 -23 474 7 30 6 59 12 65 13 85 15 279 103 391 178 262 176 504
479 643 808 75 176 128 349 148 480 4 25 9 54 11 65 15 76 24 249 14 284 -3
14 -18 33 -32 44 -23 17 -46 19 -246 21 -130 1 -225 5 -231 11 -5 6 -11 33
-14 60 -47 408 -310 968 -664 1410 -86 108 -289 325 -304 325 -12 0 -203 -191
-275 -276 -290 -342 -557 -828 -679 -1235 -28 -91 -31 -104 -46 -194 -18 -108
-5 -100 -178 -99 -83 1 -154 3 -157 6 -11 12 101 369 181 572 228 583 541
1086 915 1469 69 71 155 154 193 184 79 65 59 71 192 -62 265 -267 547 -678
770 -1125 40 -80 79 -161 88 -180 33 -76 59 -138 83 -200 14 -36 29 -74 34
-85 5 -11 25 -69 44 -130 31 -98 48 -160 77 -286 7 -28 17 -39 46 -52 68 -30
122 -26 156 11 14 15 14 26 1 97 -93 507 -354 1112 -717 1660 -55 83 -199 283
-239 330 -9 11 -43 52 -76 92 -129 155 -363 383 -395 383 -4 0 -47 -35 -95
-77z m192 -1264 c258 -322 478 -704 584 -1014 41 -121 81 -323 64 -326 -4 -1
-69 -2 -145 -3 -131 -1 -137 0 -138 19 0 11 -2 29 -4 40 -2 11 -6 37 -10 59
-20 128 -129 373 -243 544 -97 146 -206 272 -236 272 -7 0 -45 -33 -83 -73
-233 -245 -415 -583 -437 -809 -2 -20 -6 -40 -9 -45 -3 -4 -63 -8 -134 -7
l-128 1 1 29 c12 297 265 816 598 1224 74 91 195 220 207 220 4 0 55 -59 113
-131z m-92 -751 c40 -46 127 -179 171 -264 42 -82 95 -222 103 -273 3 -20 7
-40 7 -46 1 -5 -26 -9 -62 -8 -65 1 -81 9 -81 47 0 33 -60 130 -121 196 l-59
65 -51 -55 c-66 -72 -114 -146 -124 -190 -13 -62 -17 -65 -94 -65 l-71 0 0 28
c0 42 44 165 96 270 78 155 205 327 241 327 9 0 28 -15 45 -32z"/>
</g>
</svg>
